<svg width="43" height="43" viewBox="0 0 43 43" fill="none" xmlns="http://www.w3.org/2000/svg">
<circle cx="21.5" cy="21.5" r="21.5" fill="white"/>
<g clip-path="url(#clip0)">
<path d="M22 9.54175C14.8175 9.54175 9 15.2617 9 22.3164C9 27.9617 12.7245 32.7489 17.8888 34.4368C18.5388 34.557 18.7771 34.1616 18.7771 33.8225C18.7771 33.5192 18.7663 32.7153 18.7608 31.6504C15.1447 32.4207 14.382 29.9366 14.382 29.9366C13.7905 28.4622 12.9358 28.0678 12.9358 28.0678C11.7582 27.2759 13.0268 27.2922 13.0268 27.2922C14.3322 27.381 15.0179 28.6084 15.0179 28.6084C16.1771 30.5617 18.061 29.9972 18.8042 29.6712C18.9212 28.8446 19.2559 28.2823 19.6275 27.9628C16.7404 27.6432 13.706 26.5447 13.706 21.6502C13.706 20.2559 14.2098 19.1162 15.0439 18.2225C14.8977 17.8997 14.4589 16.6007 15.1577 14.8414C15.1577 14.8414 16.2464 14.4991 18.7327 16.1512C19.7727 15.8673 20.8777 15.7265 21.9827 15.72C23.0877 15.7265 24.1927 15.8673 25.2327 16.1512C27.7027 14.4991 28.7914 14.8414 28.7914 14.8414C29.4902 16.6007 29.0514 17.8997 28.9214 18.2225C29.7502 19.1162 30.2539 20.2559 30.2539 21.6502C30.2539 26.5577 27.2152 27.6378 24.3227 27.9519C24.7777 28.3354 25.2002 29.1187 25.2002 30.3158C25.2002 32.0253 25.1839 33.3989 25.1839 33.8138C25.1839 34.1486 25.4114 34.5483 26.0777 34.4205C31.2788 32.7435 35 27.953 35 22.3164C35 15.2617 29.1793 9.54175 22 9.54175Z" fill="#212121"/>
</g>
<defs>
<clipPath id="clip0">
<rect width="26" height="26" fill="white" transform="translate(9 9)"/>
</clipPath>
</defs>
</svg>
