<svg width="43" height="43" viewBox="0 0 43 43" fill="none" xmlns="http://www.w3.org/2000/svg">
<circle cx="21.5" cy="21.5" r="21.5" fill="white"/>
<path d="M30.875 12.125H12.125V30.875H30.875V12.125Z" fill="#ECEFF1"/>
<path d="M21.5 23.4719L30.875 30.875V16.2594L21.5 23.4719Z" fill="#CFD8DC"/>
<path d="M31.6562 12.125H30.875L21.5 19.5281L12.125 12.125H11.3438C10.05 12.125 9 13.175 9 14.4688V28.5312C9 29.825 10.05 30.875 11.3438 30.875H12.125V16.2594L21.5 23.4703L30.875 16.2578V30.875H31.6562C32.95 30.875 34 29.825 34 28.5312V14.4688C34 13.175 32.95 12.125 31.6562 12.125Z" fill="#F44336"/>
</svg>
